#!OML:ASF F:\VICON\USERDATA\INSTALL\rory3\rory3.ASF
:FULLY-SPECIFIED
:DEGREES
3836
root 4.11902 17.8401 0.144334 -344.357 252.085 -5.90057
lowerback 2.36668 4.37014 -0.835913
upperback 1.88212 5.75977 2.47897
thorax 0.27226 2.84263 2.873
lowerneck -14.8648 13.2002 -3.05942
upperneck 32.318 18.5041 2.77197
head 12.5969 7.94216 4.16045
rclavicle -3.81667e-014 9.54166e-015
rhumerus -44.5905 -20.3967 -60.7361
rradius 34.0413
rwrist 20.212
rhand -15.503 1.77301
rfingers 7.12502
rthumb 10.6796 -27.9356
lclavicle -3.81667e-014 9.54166e-015
lhumerus -43.3543 31.4279 45.4451
lradius 15.9363
lwrist -23.8215
lhand -11.9786 36.8144
lfingers 7.12502
lthumb 14.0776 1146.32
rfemur -14.5214 -5.343 15.8881
rtibia 35.8991
rfoot -23.1636 -4.32446
rtoes -1.31383
lfemur -19.5081 2.82301 -22.6416
ltibia 25.4807
lfoot -12.4976 1.73195
ltoes -14.6646
3837
root 4.15727 17.844 0.136562 -345.225 252.208 -4.91707
lowerback 2.42679 4.52292 -0.382973
upperback 1.85164 5.96856 2.52928
thorax 0.236374 2.94935 2.66236
lowerneck -14.8189 13.3602 -2.89773
upperneck 32.2223 18.6812 2.8081
head 12.5546 8.0581 4.16432
rclavicle 5.92378e-014 5.08889e-014
rhumerus -44.8674 -20.5682 -60.5868
rradius 34.1933
rwrist 20.304
rhand -15.4548 1.81567
rfingers 7.12502
rthumb 10.7261 -27.8905
lclavicle 5.92378e-014 5.08889e-014
lhumerus -43.2113 30.2619 45.6994
lradius 16.5872
lwrist -21.0382
lhand -11.3522 35.9846
lfingers 7.12502
lthumb 14.6812 1145.44
rfemur -14.3168 -4.62149 16.3197
rtibia 35.1255
rfoot -23.5172 -4.62352
rtoes -0.889477
lfemur -19.72 2.77875 -22.2109
ltibia 25.4335
lfoot -12.3005 1.70366
ltoes -14.6813
3838
root 4.19204 17.8533 0.126088 -345.028 252.271 -5.10954
lowerback 2.43408 4.66782 -0.372191
upperback 1.8756 6.16069 2.54835
thorax 0.246556 3.04491 2.67072
lowerneck -14.761 13.4923 -2.7793
upperneck 32.1426 18.8634 2.742
head 12.526 8.1544 4.13942
rclavicle -7.07673e-014 3.18055e-015
rhumerus -45.0457 -20.6822 -60.4037
rradius 34.343
rwrist 20.2743
rhand -15.5939 1.68448
rfingers 7.12502
rthumb 10.5919 -28.0286
lclavicle -7.07673e-014 3.18055e-015
lhumerus -43.2409 29.6403 45.7616
lradius 17.2112
lwrist -18.9383
lhand -10.8186 35.2577
lfingers 7.12502
lthumb 15.1953 1144.68
rfemur -14.0984 -4.08262 16.2976
rtibia 34.4837
rfoot -23.7597 -4.73026
rtoes 0.161638
lfemur -19.7922 2.4502 -22.16
ltibia 25.3604
lfoot -12.1014 1.97764
ltoes -13.3939
3839
root 4.22747 17.8693 0.112541 -344.175 252.336 -5.9736
lowerback 2.41792 4.78326 -0.59834
upperback 1.90548 6.31157 2.52553
thorax 0.257154 3.11915 2.76979
lowerneck -14.6873 13.6039 -2.75333
upperneck 32.0189 19.0366 2.67949
head 12.4659 8.24038 4.1215
rclavicle 2.0276e-014 6.36111e-015
rhumerus -45.1074 -20.6942 -60.3177
rradius 34.3875
rwrist 20.257
rhand -15.6675 1.69941
rfingers 7.12502
rthumb 10.5209 -28.0173
lclavicle 2.0276e-014 6.36111e-015
lhumerus -43.3971 29.4273 45.6892
lradius 17.8819
lwrist -17.3448
lhand -10.2993 34.9049
lfingers 7.12502
lthumb 15.6954 1144.29
rfemur -13.9507 -3.4581 16.0447
rtibia 33.9449
rfoot -23.9997 -4.85828
rtoes 2.20948
lfemur -19.8915 2.22939 -22.3433
ltibia 25.3113
lfoot -11.8791 2.0716
ltoes -10.6742
3840
root 4.26486 17.8681 0.102351 -343.885 252.491 -6.23358
lowerback 2.43031 4.90033 -0.514074
upperback 1.89031 6.46976 2.49798
thorax 0.238814 3.19943 2.6887
lowerneck -14.5419 13.669 -2.60713
upperneck 31.8438 19.1125 2.58185
head 12.3926 8.29574 4.05403
rclavicle 7.95139e-015 3.18055e-015
rhumerus -45.2243 -20.5749 -60.3836
rradius 34.4559
rwrist 20.0605
rhand -15.8095 1.76976
rfingers 7.12502
rthumb 10.3839 -27.9538
lclavicle 7.95139e-015 3.18055e-015
lhumerus -43.3721 28.7288 45.932
lradius 18.6227
lwrist -15.4315
lhand -10.0224 34.6533
lfingers 7.12502
lthumb 15.9621 1144.02
rfemur -13.8005 -3.21875 16.0961
rtibia 33.4637
rfoot -24.1464 -5.00337
rtoes 3.4174
lfemur -20.0654 2.09609 -22.3402
ltibia 25.2733
lfoot -11.6949 2.08534
ltoes -9.74491
3841
root 4.30491 17.8559 0.0953905 -344.566 252.7 -5.55275
lowerback 2.53316 5.00273 -0.101524
upperback 1.9024 6.60936 2.58231
thorax 0.223401 3.26991 2.53592
lowerneck -14.4834 13.7773 -2.54253
upperneck 31.779 19.2628 2.55046
head 12.3613 8.37546 4.04472
rclavicle 4.57205e-014 7.95139e-015
rhumerus -45.2197 -20.3388 -60.5105
rradius 34.6123
rwrist 19.6372
rhand -16.1388 1.41724
rfingers 7.12502
rthumb 10.0662 -28.322
lclavicle 4.57205e-014 7.95139e-015
lhumerus -43.3262 28.0152 46.3125
lradius 19.3524
lwrist -13.4069
lhand -10.1241 34.4026
lfingers 7.12502
lthumb 15.8641 1143.77
rfemur -13.5525 -3.23281 16.503
rtibia 33.0129
rfoot -24.2492 -5.16425
rtoes 3.78915
lfemur -20.2234 1.8821 -22.0091
ltibia 25.3148
lfoot -11.5474 2.25515
ltoes -10.4515
3842
root 4.34413 17.8544 0.0864758 -344.838 252.921 -5.25103
lowerback 2.55439 5.06106 0.159945
upperback 1.91743 6.68798 2.67055
thorax 0.242812 3.309 2.47959
lowerneck -14.3997 13.9103 -2.58128
upperneck 31.7161 19.4554 2.57531
head 12.3048 8.47183 4.06982
rclavicle -7.11649e-014 2.38542e-014
rhumerus -45.1589 -20.0697 -60.5452
rradius 34.8433
rwrist 19.2821
rhand -16.2857 1.42245
rfingers 7.12502
rthumb 9.92453 -28.3236
lclavicle -7.11649e-014 2.38542e-014
lhumerus -43.3224 27.4054 46.693
lradius 20.1083
lwrist -11.4602
lhand -10.1392 34.1914
lfingers 7.12502
lthumb 15.8496 1143.56
rfemur -13.3576 -2.70212 16.7858
rtibia 32.5756
rfoot -24.6064 -5.67706
rtoes 4.22143
lfemur -20.4832 1.85349 -21.8271
ltibia 25.4617
lfoot -11.4623 2.249
ltoes -11.0806
3843
root 4.38377 17.8532 0.0760706 -344.681 253.109 -5.36069
lowerback 2.5316 5.12949 0.292797
upperback 1.91915 6.7804 2.67006
thorax 0.26882 3.35576 2.40637
lowerneck -14.2917 13.9747 -2.53672
upperneck 31.5662 19.5242 2.58693
head 12.2237 8.52639 4.05602
rclavicle 2.14687e-014 9.54166e-015
rhumerus -45.0609 -19.816 -60.663
rradius 34.9558
rwrist 19.1044
rhand -16.4239 1.65227
rfingers 7.12502
rthumb 9.79116 -28.1001
lclavicle 2.14687e-014 9.54166e-015
lhumerus -43.3624 26.9825 46.9
lradius 20.933
lwrist -10.049
lhand -9.91746 34.1257
lfingers 7.12502
lthumb 16.0631 1143.48
rfemur -13.2699 -2.31284 16.9063
rtibia 32.1932
rfoot -24.9327 -5.99141
rtoes 4.84563
lfemur -20.7564 1.98662 -21.7966
ltibia 25.5761
lfoot -11.3584 2.02227
ltoes -11.3764
3844
root 4.42291 17.8541 0.067271 -344.623 253.256 -5.41269
lowerback 2.53419 5.21677 0.432253
upperback 1.95244 6.89631 2.69723
thorax 0.31008 3.41348 2.35661
lowerneck -14.3173 13.9901 -2.45974
upperneck 31.5218 19.5632 2.49208
head 12.2319 8.54347 4.01968
rclavicle 6.16232e-014 1.43125e-014
rhumerus -44.9153 -19.5771 -60.816
rradius 35.124
rwrist 18.9771
rhand -16.5439 1.46629
rfingers 7.12502
rthumb 9.67538 -28.2915
lclavicle 6.16232e-014 1.43125e-014
lhumerus -43.2843 26.2593 47.4551
lradius 21.7965
lwrist -8.32141
lhand -9.82745 34.2174
lfingers 7.12502
lthumb 16.1498 1143.56
rfemur -13.2156 -2.36125 16.99
rtibia 31.8909
rfoot -25.0747 -5.8608
rtoes 5.82854
lfemur -20.9035 1.82107 -21.7072
ltibia 25.589
lfoot -11.2506 2.0654
ltoes -11.3132
3845
root 4.46229 17.8559 0.0561211 -344.473 253.392 -5.56246
lowerback 2.58119 5.27793 0.629704
upperback 1.98111 6.98051 2.6454
thorax 0.340165 3.4567 2.19161
lowerneck -14.3533 14.1535 -2.22384
upperneck 31.5081 19.777 2.39516
head 12.2682 8.65383 3.98843
rclavicle -6.44062e-014 2.8625e-014
rhumerus -44.7222 -19.7328 -60.9387
rradius 35.3004
rwrist 18.914
rhand -16.5103 1.19036
rfingers 7.12502
rthumb 9.70785 -28.5659
lclavicle -6.44062e-014 2.8625e-014
lhumerus -43.0659 25.4767 47.9956
lradius 22.5348
lwrist -6.64963
lhand -10.1094 34.2235
lfingers 7.12502
lthumb 15.8783 1143.59
rfemur -13.1924 -2.24018 17.0615
rtibia 31.6447
rfoot -25.2019 -5.93105
rtoes 6.15046
lfemur -21.0334 1.5036 -21.6135
ltibia 25.5914
lfoot -11.1423 2.22409
ltoes -11.3352
3846
root 4.505 17.8563 0.0449847 -344.256 253.576 -5.75885
lowerback 2.70482 5.2882 0.965832
upperback 1.94559 7.00548 2.47486
thorax 0.295539 3.47324 1.82129
lowerneck -14.3186 14.4574 -1.84478
upperneck 31.4923 20.0997 2.45198
head 12.2826 8.85361 3.99832
rclavicle -2.8625e-014 6.36111e-015
rhumerus -44.5342 -20.0356 -61.161
rradius 35.386
rwrist 18.9931
rhand -16.6358 1.35525
rfingers 7.12502
rthumb 9.58675 -28.4066
lclavicle -2.8625e-014 6.36111e-015
lhumerus -42.9294 24.9305 48.1895
lradius 23.2426
lwrist -5.45604
lhand -10.3804 34.2024
lfingers 7.12502
lthumb 15.6173 1143.59
rfemur -13.2206 -2.1373 17.1663
rtibia 31.4258
rfoot -25.3227 -6.19845
rtoes 6.29911
lfemur -21.2396 1.37537 -21.561
ltibia 25.6049
lfoot -10.9739 2.18107
ltoes -11.2841
3847
root 4.54928 17.8558 0.0330774 -343.984 253.764 -6.00144
lowerback 2.80306 5.30369 1.14864
upperback 1.90266 7.03393 2.40374
thorax 0.226984 3.48941 1.63691
lowerneck -14.3015 14.6257 -1.66907
upperneck 31.4959 20.2682 2.54997
head 12.2832 8.96583 4.03028
rclavicle -9.14409e-015 4.13472e-014
rhumerus -44.3481 -19.8388 -61.3991
rradius 35.6119
rwrist 18.7598
rhand -16.5825 1.52424
rfingers 7.12502
rthumb 9.63814 -28.2353
lclavicle -9.14409e-015 4.13472e-014
lhumerus -42.8517 24.3045 48.7096
lradius 24.0276
lwrist -3.63461
lhand -11.5432 34.3108
lfingers 7.12502
lthumb 14.4971 1143.78
rfemur -13.2741 -2.07217 17.2677
rtibia 31.2497
rfoot -25.4049 -6.39568
rtoes 6.96488
lfemur -21.4517 1.23955 -21.5125
ltibia 25.6052
lfoot -10.8414 2.12904
ltoes -11.3891
3848
root 4.59497 17.8565 0.0185693 -343.777 253.902 -6.20569
lowerback 2.91078 5.38125 1.18672
upperback 1.8809 7.14071 2.42858
thorax 0.144102 3.54256 1.62598
lowerneck -14.2706 14.6085 -1.62667
upperneck 31.3998 20.2464 2.50315
head 12.2506 8.96366 3.99732
rclavicle -4.13472e-014 -3.97569e-014
rhumerus -44.2414 -19.4877 -61.4791
rradius 36.0712
rwrist 18.3393
rhand -16.4522 1.4502
rfingers 7.12502
rthumb 9.76392 -28.3035
lclavicle -4.13472e-014 -3.97569e-014
lhumerus -42.6321 23.4484 49.6565
lradius 24.7538
lwrist -1.5149
lhand -13.3401 34.3018
lfingers 7.12502
lthumb 12.7653 1143.89
rfemur -13.3246 -2.0205 17.3653
rtibia 31.107
rfoot -25.4647 -6.55234
rtoes 7.40183
lfemur -21.6301 1.1295 -21.4418
ltibia 25.5943
lfoot -10.701 2.08986
ltoes -11.6562
